Patient4_TMGait_0pt4_02_right_01_EMG.mot
version=1
nRows=30
nColumns=33
inDegrees=no
endheader
time	1LAddLong	2LGlutMax	3LGlutMed	4LIliopsoas	5LSemiMemb	6LBicFemLong	7LRecFem	8LVastMed	9LVastLat	10LGasMed	11LTibAnt	12lTibPost	13LPeroneusLong	14LSol	15LExtDigLong	16LFlexDigLong	17RAddLong	18RGlutMax	19RGlutMed	20RIliopsoas	21RSemiMemb	22RBicFemLong	23RRecFem	24RVastMed	25RVastLat	26RGasMed	27RTibAnt	28RTibPost	29RPeroneusLong	30RSol	31RExtDigLong	32RFlexDigLong
0.49	0.008392	-0.11932	0.043488	-0.00412	0.007935	0.02594	0.13412	-0.002289	-0.06134	0.031738	0.000458	0.002899	0.071411	-0.10254	0.039215	-0.003357	0.007477	-0.11414	0.069885	0.049286	0.034943	0.009308	0.050659	-0.10162	0.010681	-0.031891	0.1828	0.009003	0.000153	0.067749	0.002289	-0.0177
0.491	0.004578	-0.08728	0.19791	0.007477	0.004425	0.005951	0.07431	-0.008392	-0.069275	0.008392	0.011444	0.014801	0.039368	0.053253	0.074158	-0.004578	0.011139	-0.087433	0.10193	-0.06073	0.011902	-0.00061	0.074921	-0.062408	-0.012817	-0.037689	0.038605	-0.007782	-0.023041	0.042267	-0.000305	-0.020447
0.492	0.005341	-0.054321	0.10452	0.019226	0.016022	-0.012207	-0.023804	0.001678	-0.093231	0.003662	0.016479	0.006714	0.24918	0.018005	0.062103	-0.00412	0.01297	-0.10834	0.29053	-0.06897	0.016479	0.007782	0.039215	-0.077667	0.013428	-0.043793	-0.121	-0.006104	-0.00412	0.066986	0.000305	-0.011597
0.493	0.004883	-0.064392	0.098877	0.004578	0.015717	-0.022888	-0.19058	0.010986	-0.16037	0.028992	-0.004578	0.011902	0.21194	-0.022583	0.045013	-0.002289	0.011902	-0.090637	0.42496	-0.083466	0.014648	0.002441	0.065613	-0.09964	-0.004883	-0.032959	-0.15335	-0.005646	0.079651	0.079956	-0.012665	-0.002136
0.494	0.009613	-0.055237	0.022278	0.009308	-0.001373	-0.000458	-0.24826	-0.005493	-0.12573	0.014343	0.006256	0.012054	-0.099487	-0.032349	0.020142	-0.005493	0.007477	-0.076904	0.092316	-0.054779	0.03006	-0.010223	0.063171	-0.046844	-0.013428	-0.024261	-0.092468	-0.003204	-0.050812	-0.018616	-0.003204	-0.00885
0.495	-0.010529	-0.041504	-0.007935	-0.020752	0.003052	0.005035	-0.21835	-0.028992	-0.009918	0.018768	0.034332	0.010681	-0.13382	0.10635	-0.096436	-0.00885	0.008087	-0.081177	0.11688	-0.016785	0.019226	-0.022888	0.075531	-0.048065	-0.007172	-0.010223	0	-0.006714	-0.084534	-0.048828	-0.00061	0.001221
0.496	0.001068	-0.026245	0.034027	-0.019989	0.013275	0.019226	-0.13825	-0.034637	0.1297	-0.007172	0.073547	0.013275	-0.3978	0.1593	0.17853	0.000153	0.00473	-0.03952	0.13825	-0.004578	0.005493	-0.020447	0.052032	-0.059814	-0.035553	0.002136	-0.00946	-0.003662	-0.099945	-0.041504	-0.000153	-0.002441
0.497	0.00473	-0.027008	0.036316	-0.001678	0.021057	0.007172	-0.029449	-0.047913	0.26352	-0.033417	-0.003357	0.008087	0.11459	0.13031	-0.02533	0.003204	0.011444	-0.079498	0.050507	0.010681	0.003967	-0.037537	0.064392	-0.083771	-0.028534	0.004883	0.012512	-0.00412	-0.031738	-0.014648	0.007629	-0.005951
0.498	0.007782	-0.01709	-0.10117	0.007629	0.017853	0.009155	0.018158	-0.02182	0.11734	-0.040283	-0.027161	0.007324	0.47745	0.091095	0	-0.004578	0.011139	-0.10834	-0.089569	0.001831	-0.000153	-0.036926	0.049286	-0.10101	-0.032806	0.010986	0.025787	-0.009003	-0.20096	-0.022888	0.001678	-0.009155
0.499	0.009918	-0.011749	-0.088654	0.0177	0.009766	0.026398	-0.01297	0.001221	-0.064697	-0.040588	0.055389	0.007172	0.33035	0.14679	0.072174	-0.000153	0.028381	-0.10422	0.17227	-0.103	0.000763	-0.048676	0.075226	-0.093384	-0.01297	0.010071	0.068054	-0.00885	-0.2858	-0.041351	-0.002289	-0.013123
0.5	0.00885	0.005646	-0.090027	0.03479	0.012512	-0.006409	0.055542	0.010071	-0.080566	-0.035553	0.078278	0.005646	-0.047607	0.11826	-0.21652	-0.022583	0.01297	-0.081787	0.35141	-0.16434	-0.006714	-0.028229	0.042877	-0.09613	-0.008087	0.003815	0.10712	-0.009003	-0.3125	-0.050812	-0.002289	-0.019226
0.501	0.005188	0.007172	0.057678	0.007935	0.002747	0.025177	0.04425	0.005951	-0.075226	-0.026855	0.070343	0.003052	-0.15137	0.093994	-0.23148	-0.012817	0.005951	-0.091705	0.069733	-0.1178	-0.012665	-0.035858	0.11307	-0.093231	-0.008545	0.003204	0.12955	-0.002594	-0.14145	-0.06424	0.002899	-0.007629
0.502	0.012817	0.01236	0.31555	0.009613	0.015717	-0.016327	-0.054474	-0.020599	-0.010223	-0.03006	0.015106	0.00824	-0.25482	0.066681	-0.14587	-0.0177	0.013123	-0.12192	0.036163	-0.071564	-0.018005	-0.01709	0.054626	-0.096283	-0.023651	0.006409	0.13611	-0.006561	0.075073	-0.047455	0.000916	-0.009766
0.503	0.014801	0.040588	0.14694	0.014343	0.008087	-0.014801	-0.095215	-0.032501	0.086212	-0.00412	0.00473	0.000153	-0.22003	0.060425	0.069733	-0.010223	0.00885	-0.10513	0.25192	0.022125	-0.011292	-0.019226	0.042114	-0.087585	-0.009918	0.01236	-0.016785	-0.003815	0.38147	0.002594	0.00351	0.004883
0.504	0.008392	0.046844	0.12985	0.01236	0.015259	-0.000458	-0.095367	-0.020752	0.11047	-0.037842	0.026245	-0.000916	0.025024	0.057983	0.093384	-0.003662	0.008545	-0.072174	0.58304	0.21805	-0.015259	-0.023193	0.015259	-0.082092	-0.019989	0.026093	-0.10086	-0.004272	0.010834	-0.027466	0.000763	0.003357
0.505	-0.010681	0.024872	0.052795	0.016327	-0.007629	0.007019	0.016479	0	0.059357	-0.018921	0.050354	0.012054	-0.31876	0.009155	0.14664	0.011749	0.009918	-0.074921	0.29251	0.25665	-0.023804	-0.001526	0.005341	-0.019379	-0.015869	0.044861	-0.003815	-0.007019	-0.35599	0	0.001678	-0.003357
0.506	-0.00885	0.029449	-0.04425	0.012054	0.00351	0.002441	-0.032959	0.018768	0.10239	-0.007629	-0.058289	0.013428	0.03479	-0.055542	0.18692	0.002441	-0.003815	-0.061035	-0.012817	0.12741	-0.014191	-0.000916	-0.005493	-0.065308	0.003357	0.065155	0.070953	-0.000153	-0.2388	-0.006104	-0.001984	-0.00351
0.507	-0.010681	0.039978	0.037537	0.007782	0	-0.003662	-0.072937	0.003204	0.12772	0.016174	-0.075989	0.01358	0.018005	-0.030365	0.31937	0.003204	-0.002441	-0.04715	0.069885	-0.003815	-0.007782	0.012207	-0.014191	-0.055389	0.01297	0.071106	0.095825	-0.004883	-0.079041	-0.08728	-0.001526	0.006714
0.508	-0.006561	0.02655	0.083008	0.029602	-0.02121	0.018768	0.023193	-0.02121	-0.028992	0.016785	0.014801	0.014648	-0.044403	0.018005	0.008545	-0.00351	-0.001984	-0.019531	0.1741	0.000458	-0.001831	0.00946	-0.004272	-0.078278	0.002441	0.072327	0.13672	-0.004883	0.23346	-0.0354	0.001068	0.010529
0.509	-0.002441	0.030365	0.13718	0.007324	-0.04776	0.02655	0.14175	-0.02121	-0.019073	0.019836	0.2385	0.016632	-0.13763	0.024109	-0.11566	-0.0177	0.00885	-0.011292	0.14618	0.006104	-0.001068	0.001526	-0.000305	-0.070953	-0.001221	0.074005	0.15564	-0.010376	0.34912	-0.013123	-0.001068	0.005341
0.51	-0.008087	0.03006	0.07843	0.004272	-0.034943	0.018768	0.21469	0.000763	-0.07782	-0.011292	0.51819	0.025024	-0.10788	-0.018005	-0.34119	-0.007477	0.011902	-0.056305	0.4071	-0.002594	0.017853	0.01358	-0.015259	-0.084229	0.003662	0.061951	0.21973	-0.00351	0.27496	-0.008545	0.000763	0.014496
0.511	-0.004578	0.045013	0.007172	-0.00351	0.02655	0.009003	0.13336	0.046844	-0.082855	0.012665	0.46493	0.032043	-0.032043	-0.037537	0.54459	-0.008392	0.008087	-0.055389	0.62317	0.036926	0.023346	0.002136	-0.022888	-0.051575	-0.003967	0.055695	0.06546	-0.004425	0.22934	-0.0354	-0.000916	0.011139
0.512	0.007935	0.079041	0.010834	-0.002289	0.073395	-0.012512	-0.14725	0.041351	0.065155	0.003357	-0.027924	0.028992	0.0177	-0.011444	0.33341	0.005798	0.007782	-0.045471	0.23361	0.10986	-0.004425	0.010834	-0.038147	-0.064392	0.006256	0.044403	0.074463	0.001526	0.013885	-0.039673	-0.001221	0.018311
0.513	0.016174	0.052948	0.0354	-0.005035	0.067444	-0.028381	-0.13886	-0.020294	0.22858	-0.02533	-0.3717	0.031891	0.12299	0.078735	-0.30045	-0.006866	0.003967	-0.036774	-0.26688	0.084534	-0.089569	0.026245	-0.046234	-0.050049	0.001068	0.034637	0.081024	-0.001984	-0.027313	-0.063019	0	0.018311
0.514	0.018005	0.095825	0.038147	0.02533	0.027313	-0.018768	-0.097198	-0.024872	0.1297	-0.022583	-0.35751	0.026093	0.12131	0.14069	-0.20447	-0.008545	0.010681	-0.016327	-0.242	0.059357	-0.14053	0.049744	-0.055695	-0.093079	0.006714	0.033722	-0.29037	-0.004883	-0.28809	-0.087433	-0.000458	0.026398
0.515	0.007935	0.079956	-0.004578	0.00946	0.000458	-0.036316	-0.02655	-0.036469	-0.13825	-0.023346	-0.26535	0.022583	0.044708	0.088501	0.057068	-0.007477	0.02243	-0.04303	0.028381	0.029602	-0.1683	0.032501	-0.041809	-0.085297	0.016632	0.025177	-0.67902	-0.007019	-0.17593	-0.1149	-0.002289	0.026245
0.516	-0.000153	0.11017	0.01709	0.006409	-0.007324	-0.024719	-0.042267	-0.013275	-0.34607	-0.02243	-0.07782	0.018768	-0.045776	0.11932	0.13092	0.003662	0.029297	-0.008392	0.46783	0.06546	-0.18127	0.043335	-0.057983	-0.083313	0.007324	0.012512	-0.19745	-0.007324	-0.24704	-0.1033	0.003052	0.022888
0.517	-0.001221	0.14374	0.039368	0.001831	-0.011292	-0.006714	-0.001526	-0.006714	-0.28915	-0.065613	-0.26596	0.020905	0.045624	0.14679	0.097809	0.015411	0.017242	-0.042572	0.57831	0.075378	-0.11185	0.052338	-0.030212	-0.058746	0.005493	0.001221	0.12009	-0.005798	-0.25803	-0.016632	0.000305	0.02594
0.518	0.00824	0.12924	0.029297	0.013428	0.018463	-0.030365	-0.014191	-0.005188	-0.20355	-0.059052	-0.12085	0.019531	0.10986	0.079956	-0.076904	0.007172	-0.003967	-0.039215	0.1268	0.070496	0.10025	0.068817	-0.056152	-0.033112	0.001068	-0.00885	0.036316	-0.010834	-0.27756	0.033875	0.003204	0.005341
0.519	0.015106	0.10574	0.023804	-0.001831	0.012054	-0.009613	0.014038	-0.011292	-0.10864	0.003204	-0.06073	0.003815	0.016174	-0.040741	-0.87311	-0.009918	-0.016479	-0.0354	-0.22797	0.0737	0.059204	0.03479	-0.054932	-0.054016	0.028992	-0.012817	-0.020905	-0.006409	-0.21805	0.018921	0.004578	0.005188
